<svg width="16" height="17" viewBox="0 0 16 17" fill="none" xmlns="http://www.w3.org/2000/svg">
<g clip-path="url(#clip0_1_116)">
<path fill-rule="evenodd" clip-rule="evenodd" d="M-0.000185589 8.14821C-0.000185589 5.98719 0.84267 3.91467 2.34296 2.3866C3.84325 0.858525 5.87809 6.1863e-05 7.99982 6.1863e-05C10.1216 6.1863e-05 12.1564 0.858525 13.6567 2.3866C15.157 3.91467 15.9998 5.98719 15.9998 8.14821C15.9998 10.3092 15.157 12.3818 13.6567 13.9098C12.1564 15.4379 10.1216 16.2964 7.99982 16.2964C5.87809 16.2964 3.84325 15.4379 2.34296 13.9098C0.84267 12.3818 -0.000185589 10.3092 -0.000185589 8.14821H-0.000185589ZM7.54328 11.6356L12.1492 5.77113L11.3172 5.0932L7.38968 10.0918L4.60782 7.73103L3.92515 8.5654L7.54328 11.6367V11.6356Z" fill="#1F2020"/>
</g>
<defs>
<clipPath id="clip0_1_116">
<rect width="15.7859" height="16.0782" fill="white" transform="scale(1.01356)"/>
</clipPath>
</defs>
</svg>
