<svg width="60" height="71" viewBox="0 0 60 71" fill="none" xmlns="http://www.w3.org/2000/svg">
<path d="M25.78 42.1953L22.8242 63.7929L29.4746 67.1157L36.125 63.7929L33.1692 42.1953" stroke="#A91E2D" stroke-width="2"/>
<path d="M29.4754 25.2251C35.5564 25.2251 40.486 20.364 40.486 14.3674C40.486 8.37091 35.5564 3.50977 29.4754 3.50977C23.3945 3.50977 18.4648 8.37091 18.4648 14.3674C18.4648 20.364 23.3945 25.2251 29.4754 25.2251Z" stroke="#A91E2D" stroke-width="2"/>
<path d="M56.7224 67.88V53.9839C56.7224 43.1268 47.797 34.3252 36.7868 34.3252H21.9356C10.9254 34.3252 2 43.1268 2 53.9839V67.88" stroke="#A91E2D" stroke-width="2"/>
<path d="M37.4571 34.3252C37.4571 38.6716 33.8841 42.195 29.4767 42.195C25.0691 42.195 21.4961 38.6716 21.4961 34.3252" stroke="#A91E2D" stroke-width="2"/>
</svg>
