<svg width="53" height="71" viewBox="0 0 53 71" fill="none" xmlns="http://www.w3.org/2000/svg">
<path d="M37.5628 20.6113V24.0797C37.5628 30.4663 32.4096 35.6438 26.0529 35.6438C19.6961 35.6438 14.543 30.4663 14.543 24.0797V20.6113" stroke="#A91E2D" stroke-width="2"/>
<path d="M39.4152 20.6079V16.5821C39.4152 9.16883 33.4338 3.15918 26.0553 3.15918C18.6768 3.15918 12.6953 9.16883 12.6953 16.5821V20.6079" stroke="#A91E2D" stroke-width="2"/>
<path d="M21.3379 10.3804V4.79199" stroke="#A91E2D" stroke-width="2" stroke-linecap="square"/>
<path d="M11.3691 20.6084H40.7383" stroke="#A91E2D" stroke-width="2" stroke-linecap="square"/>
<path d="M30.9141 10.3804V4.79199" stroke="#A91E2D" stroke-width="2" stroke-linecap="square"/>
<path d="M26.0547 52.2256V60.5441" stroke="#A91E2D" stroke-width="2" stroke-linecap="square"/>
<path d="M50.3449 69.8807V60.5815C50.3449 50.8101 42.4608 42.8887 32.7351 42.8887H19.3774C9.65172 42.8887 1.76758 50.8101 1.76758 60.5815V69.8807" stroke="#A91E2D" stroke-width="2"/>
</svg>
