<?xml version="1.0" encoding="utf-8"?>
<!-- Generator: Adobe Illustrator 28.3.0, SVG Export Plug-In . SVG Version: 6.00 Build 0)  -->
<svg version="1.1" id="Layer_1" xmlns="http://www.w3.org/2000/svg" xmlns:xlink="http://www.w3.org/1999/xlink" x="0px" y="0px"
	 viewBox="0 0 500 500" style="enable-background:new 0 0 500 500;" xml:space="preserve">
<style type="text/css">
	.st0{fill-rule:evenodd;clip-rule:evenodd;fill:#FFFFFF;}
</style>
<g transform="matrix(1,0,0,1,-384,0)">
	<path class="st0" d="M847.2,196.43H687.57c-29.59,0-53.57-23.98-53.57-53.57V0.52C630.84,0.18,627.66,0,624.45,0H473.29
		c-29.59,0-53.57,23.98-53.57,53.57v392.86c0,29.59,23.98,53.57,53.57,53.57c74.71,0,246.71,0,321.43,0
		c14.21,0,27.84-5.64,37.88-15.7c10.05-10.04,15.7-23.66,15.7-37.88V210.38C848.29,205.68,847.91,201.02,847.2,196.43z
		 M669.71,12.32v130.54c0,9.86,8,17.86,17.86,17.86H833.2c-4.07-6.09-8.93-11.7-14.46-16.7L684.18,22.93
		C679.7,18.89,674.84,15.34,669.71,12.32z"/>
</g>
</svg>
