<?xml version="1.0" encoding="UTF-8"?>
<svg id="Layer_1" xmlns="http://www.w3.org/2000/svg" version="1.1" viewBox="0 0 2000 2000">
  <!-- Generator: Adobe Illustrator 29.5.0, SVG Export Plug-In . SVG Version: 2.1.0 Build 137)  -->
  <defs>
    <style>
      .st0 {
        fill: #a91e2d;
      }
    </style>
  </defs>
  <path class="st0" d="M1000,1989.2c359.9,0,674.9-192.2,848-479.6H152c173.1,287.4,488.1,479.6,848,479.6Z"/>
  <path class="st0" d="M1000,10.8c-359.9,0-674.9,192.2-848,479.6h1695.9C1674.9,203.1,1359.9,10.8,1000,10.8Z"/>
  <path class="st0" d="M11,985h1978.1c-2.5-168.4-47.1-326.6-123.7-464.6H134.7C58.1,658.4,13.5,816.6,11,985Z"/>
  <path class="st0" d="M134.7,1479.6h1730.6c76.6-138,121.2-296.2,123.7-464.6H11c2.5,168.4,47.1,326.6,123.7,464.6Z"/>
</svg>