<svg width="30" height="30" viewBox="0 0 30 30" fill="none" xmlns="http://www.w3.org/2000/svg">
<path d="M14.9991 1.87484C12.265 1.87806 9.64389 2.96559 7.71062 4.89886C5.77735 6.83213 4.68982 9.45328 4.6866 12.1873C4.68332 14.4216 5.41314 16.5953 6.7641 18.3748C6.7641 18.3748 7.04535 18.7451 7.09128 18.7986L14.9991 28.1248L22.9107 18.7939C22.9519 18.7442 23.2341 18.3748 23.2341 18.3748L23.235 18.372C24.5853 16.5932 25.3148 14.4206 25.3116 12.1873C25.3084 9.45328 24.2208 6.83213 22.2876 4.89886C20.3543 2.96559 17.7332 1.87806 14.9991 1.87484ZM14.9991 15.9373C14.2574 15.9373 13.5324 15.7174 12.9157 15.3053C12.299 14.8933 11.8184 14.3076 11.5345 13.6224C11.2507 12.9372 11.1765 12.1832 11.3212 11.4557C11.4658 10.7283 11.823 10.0601 12.3474 9.53568C12.8719 9.01124 13.5401 8.65408 14.2675 8.50939C14.9949 8.3647 15.7489 8.43896 16.4342 8.72279C17.1194 9.00662 17.7051 9.48726 18.1171 10.1039C18.5292 10.7206 18.7491 11.4457 18.7491 12.1873C18.7479 13.1815 18.3524 14.1346 17.6494 14.8376C16.9464 15.5406 15.9933 15.9361 14.9991 15.9373Z" fill="white"/>
</svg>
