<svg width="30" height="30" viewBox="0 0 30 30" fill="none" xmlns="http://www.w3.org/2000/svg">
<path d="M24.9978 13.7492H27.4978C27.4978 7.33668 22.6565 2.50043 16.2353 2.50043V5.00043C21.3128 5.00043 24.9978 8.67918 24.9978 13.7492Z" fill="white"/>
<path d="M16.25 10.0003C18.8788 10.0003 20 11.1215 20 13.7503H22.5C22.5 9.719 20.2813 7.50025 16.25 7.50025V10.0003ZM20.5275 16.804C20.2873 16.5857 19.9717 16.4693 19.6473 16.4793C19.3229 16.4893 19.015 16.625 18.7888 16.8578L15.7975 19.934C15.0775 19.7965 13.63 19.3453 12.14 17.859C10.65 16.3678 10.1988 14.9165 10.065 14.2015L13.1388 11.209C13.3718 10.9829 13.5077 10.675 13.5177 10.3505C13.5278 10.026 13.4111 9.71031 13.1925 9.47025L8.57377 4.3915C8.35508 4.1507 8.05112 4.00463 7.72646 3.98433C7.40181 3.96402 7.08202 4.07108 6.83502 4.28275L4.12252 6.609C3.90641 6.8259 3.77742 7.11457 3.76002 7.42025C3.74127 7.73275 3.38377 15.1353 9.12377 20.8778C14.1313 25.884 20.4038 26.2503 22.1313 26.2503C22.3838 26.2503 22.5388 26.2428 22.58 26.2403C22.8857 26.2231 23.1742 26.0936 23.39 25.8765L25.715 23.1628C25.9269 22.9159 26.0341 22.5962 26.0141 22.2716C25.994 21.9469 25.8481 21.6429 25.6075 21.424L20.5275 16.804Z" fill="white"/>
</svg>
