<svg width="71" height="66" viewBox="0 0 71 66" fill="none" xmlns="http://www.w3.org/2000/svg">
<path d="M1.44531 33.5977L34.4078 40.2187L67.3702 33.5977" stroke="#A91E2D" stroke-width="2"/>
<path d="M62.0874 16.3174H7.88932C4.62164 16.3174 1.97266 19.0037 1.97266 22.3174V56.0464C1.97266 59.3601 4.62164 62.0464 7.88932 62.0464H62.0874C65.355 62.0464 68.004 59.3601 68.004 56.0464V22.3174C68.004 19.0037 65.355 16.3174 62.0874 16.3174Z" stroke="#A91E2D" stroke-width="2"/>
<path d="M42.6875 36.082L42.6875 42.291C42.6875 44.5002 40.9215 46.291 38.7431 46.291L31.2283 46.291C29.0499 46.291 27.2839 44.5002 27.2839 42.291L27.2839 36.082C27.2839 33.8729 29.0499 32.082 31.2283 32.082L38.7431 32.082C40.9215 32.082 42.6875 33.8729 42.6875 36.082Z" fill="white" stroke="#A91E2D" stroke-width="2"/>
<path d="M47.664 17.0577V7.56055C47.664 5.35141 45.8981 3.56055 43.7196 3.56055H26.2609C24.0823 3.56055 22.3164 5.35141 22.3164 7.56055V17.0577" stroke="#A91E2D" stroke-width="2"/>
</svg>
