<svg xmlns="http://www.w3.org/2000/svg" width="178" height="156" viewBox="0 0 178 156" fill="none"><script xmlns="" src="chrome-extension://fjnbnpbmkenffdnngjfgmeleoegfcffe/static/js/contentInt.js"/>
<g id="Group 189718">
<path id="Vector" d="M15.3112 16.2641H5.21258L5.21258 13.9258C5.21482 11.6059 6.15774 9.36048 7.87653 7.58204C9.59531 5.80359 11.9806 4.60528 14.6155 4.19658L14.6155 0.121826C10.7487 0.529421 7.18488 2.1419 4.5885 4.65862C1.99212 7.17535 0.540364 10.4246 0.503907 13.8005L0.503907 20.3013H15.3112L15.3112 16.2641Z" fill="#a91e2d"/>
<path id="Vector_2" d="M15.3112 43.225H5.21258L5.21258 40.8868C5.21482 38.5669 6.15774 36.3214 7.87653 34.543C9.59531 32.7645 11.9806 31.5662 14.6155 31.1575L14.6155 27.0828C10.7487 27.4904 7.18488 29.1028 4.5885 31.6196C1.99212 34.1363 0.540364 37.3855 0.503907 40.7614L0.503907 47.2622H15.3112L15.3112 43.225Z" fill="#a91e2d"/>
<path id="Vector_3" d="M15.3112 70.186H5.21258L5.21258 67.8477C5.21482 65.5278 6.15774 63.2824 7.87653 61.5039C9.59531 59.7255 11.9806 58.5272 14.6155 58.1185L14.6155 54.0437C10.7487 54.4513 7.18488 56.0638 4.5885 58.5805C1.99212 61.0972 0.540364 64.3464 0.503907 67.7223L0.503907 74.2231H15.3112L15.3112 70.186Z" fill="#a91e2d"/>
<path id="Vector_4" d="M15.3112 97.1489H5.21258L5.21258 94.8106C5.21482 92.4907 6.15774 90.2452 7.87653 88.4668C9.59531 86.6884 11.9806 85.49 14.6155 85.0813L14.6155 81.0066C10.7487 81.4142 7.18488 83.0267 4.5885 85.5434C1.99212 88.0601 0.540364 91.3093 0.503907 94.6852L0.503907 101.186H15.3112L15.3112 97.1489Z" fill="#a91e2d"/>
<path id="Vector_5" d="M15.3112 124.112H5.21258L5.21258 121.773C5.21482 119.454 6.15774 117.208 7.87653 115.43C9.59531 113.651 11.9806 112.453 14.6155 112.044L14.6155 107.969C10.7487 108.377 7.18488 109.99 4.5885 112.506C1.99212 115.023 0.540364 118.272 0.503907 121.648L0.503907 128.149H15.3112L15.3112 124.112Z" fill="#a91e2d"/>
<path id="Vector_6" d="M15.3112 151.073H5.21258L5.21258 148.734C5.21482 146.415 6.15774 144.169 7.87653 142.391C9.59531 140.612 11.9806 139.414 14.6155 139.005L14.6155 134.93C10.7487 135.338 7.18488 136.95 4.5885 139.467C1.99212 141.984 0.540364 145.233 0.503907 148.609L0.503907 155.11H15.3112L15.3112 151.073Z" fill="#a91e2d"/>
<path id="Vector_7" d="M42.3219 16.2641H32.2233L32.2233 13.9258C32.2256 11.6059 33.1685 9.36048 34.8873 7.58204C36.6061 5.80359 38.9914 4.60528 41.6262 4.19658L41.6262 0.121826C37.7594 0.529421 34.1956 2.1419 31.5992 4.65862C29.0029 7.17535 27.5511 10.4246 27.5146 13.8005L27.5146 20.3013H42.3219L42.3219 16.2641Z" fill="#a91e2d"/>
<path id="Vector_8" d="M42.3219 43.225H32.2233L32.2233 40.8868C32.2256 38.5669 33.1685 36.3214 34.8873 34.543C36.6061 32.7645 38.9914 31.5662 41.6262 31.1575L41.6262 27.0828C37.7594 27.4904 34.1956 29.1028 31.5992 31.6196C29.0029 34.1363 27.5511 37.3855 27.5146 40.7614L27.5146 47.2622H42.3219L42.3219 43.225Z" fill="#a91e2d"/>
<path id="Vector_9" d="M42.3219 70.186H32.2233L32.2233 67.8477C32.2256 65.5278 33.1685 63.2824 34.8873 61.5039C36.6061 59.7255 38.9914 58.5272 41.6262 58.1185L41.6262 54.0437C37.7594 54.4513 34.1956 56.0638 31.5992 58.5805C29.0029 61.0972 27.5511 64.3464 27.5146 67.7223L27.5146 74.2231H42.3219L42.3219 70.186Z" fill="#a91e2d"/>
<path id="Vector_10" d="M42.3219 97.1489H32.2233L32.2233 94.8106C32.2256 92.4907 33.1685 90.2452 34.8873 88.4668C36.6061 86.6884 38.9914 85.49 41.6262 85.0813L41.6262 81.0066C37.7594 81.4142 34.1956 83.0267 31.5992 85.5434C29.0029 88.0601 27.5511 91.3093 27.5146 94.6852L27.5146 101.186H42.3219L42.3219 97.1489Z" fill="#a91e2d"/>
<path id="Vector_11" d="M42.3219 124.112H32.2233L32.2233 121.773C32.2256 119.454 33.1685 117.208 34.8873 115.43C36.6061 113.651 38.9914 112.453 41.6262 112.044L41.6262 107.969C37.7594 108.377 34.1956 109.99 31.5992 112.506C29.0029 115.023 27.5511 118.272 27.5146 121.648L27.5146 128.149H42.3219L42.3219 124.112Z" fill="#a91e2d"/>
<path id="Vector_12" d="M42.3219 151.073H32.2233L32.2233 148.734C32.2256 146.415 33.1685 144.169 34.8873 142.391C36.6061 140.612 38.9914 139.414 41.6262 139.005L41.6262 134.93C37.7594 135.338 34.1956 136.95 31.5992 139.467C29.0029 141.984 27.5511 145.233 27.5146 148.609L27.5146 155.11H42.3219L42.3219 151.073Z" fill="#a91e2d"/>
<path id="Vector_13" d="M69.3317 16.2641H59.2331L59.2331 13.9258C59.2353 11.6059 60.1783 9.36048 61.897 7.58204C63.6158 5.80359 66.0011 4.60528 68.636 4.19658L68.636 0.121826C64.7692 0.529421 61.2054 2.1419 58.609 4.65862C56.0126 7.17535 54.5609 10.4246 54.5244 13.8005L54.5244 20.3013H69.3317L69.3317 16.2641Z" fill="#a91e2d"/>
<path id="Vector_14" d="M69.3317 43.225H59.2331L59.2331 40.8868C59.2353 38.5669 60.1783 36.3214 61.897 34.543C63.6158 32.7645 66.0011 31.5662 68.636 31.1575L68.636 27.0828C64.7692 27.4904 61.2054 29.1028 58.609 31.6196C56.0126 34.1363 54.5609 37.3855 54.5244 40.7614L54.5244 47.2622H69.3317L69.3317 43.225Z" fill="#a91e2d"/>
<path id="Vector_15" d="M69.3317 70.186H59.2331L59.2331 67.8477C59.2353 65.5278 60.1783 63.2824 61.897 61.5039C63.6158 59.7255 66.0011 58.5272 68.636 58.1185L68.636 54.0437C64.7692 54.4513 61.2054 56.0638 58.609 58.5805C56.0126 61.0972 54.5609 64.3464 54.5244 67.7223L54.5244 74.2231H69.3317L69.3317 70.186Z" fill="#a91e2d"/>
<path id="Vector_16" d="M69.3317 97.1489H59.2331L59.2331 94.8106C59.2353 92.4907 60.1783 90.2452 61.897 88.4668C63.6158 86.6884 66.0011 85.49 68.636 85.0813L68.636 81.0066C64.7692 81.4142 61.2054 83.0267 58.609 85.5434C56.0126 88.0601 54.5609 91.3093 54.5244 94.6852L54.5244 101.186H69.3317L69.3317 97.1489Z" fill="#a91e2d"/>
<path id="Vector_17" d="M69.3317 124.112H59.2331L59.2331 121.773C59.2353 119.454 60.1783 117.208 61.897 115.43C63.6158 113.651 66.0011 112.453 68.636 112.044L68.636 107.969C64.7692 108.377 61.2054 109.99 58.609 112.506C56.0126 115.023 54.5609 118.272 54.5244 121.648L54.5244 128.149H69.3317L69.3317 124.112Z" fill="#a91e2d"/>
<path id="Vector_18" d="M69.3317 151.073H59.2331L59.2331 148.734C59.2353 146.415 60.1783 144.169 61.897 142.391C63.6158 140.612 66.0011 139.414 68.636 139.005L68.636 134.93C64.7692 135.338 61.2054 136.95 58.609 139.467C56.0126 141.984 54.5609 145.233 54.5244 148.609L54.5244 155.11H69.3317L69.3317 151.073Z" fill="#a91e2d"/>
<path id="Vector_19" d="M96.3425 16.2641H86.2438L86.2438 13.9258C86.2461 11.6059 87.189 9.36048 88.9078 7.58204C90.6266 5.80359 93.0119 4.60528 95.6467 4.19658L95.6467 0.121826C91.7799 0.529421 88.2161 2.1419 85.6197 4.65862C83.0234 7.17535 81.5716 10.4246 81.5352 13.8005L81.5352 20.3013H96.3425L96.3425 16.2641Z" fill="#a91e2d"/>
<path id="Vector_20" d="M96.3425 43.225H86.2438L86.2438 40.8868C86.2461 38.5669 87.189 36.3214 88.9078 34.543C90.6266 32.7645 93.0119 31.5662 95.6467 31.1575L95.6467 27.0828C91.7799 27.4904 88.2161 29.1028 85.6197 31.6196C83.0234 34.1363 81.5716 37.3855 81.5352 40.7614L81.5352 47.2622H96.3425L96.3425 43.225Z" fill="#a91e2d"/>
<path id="Vector_21" d="M96.3425 70.186H86.2438L86.2438 67.8477C86.2461 65.5278 87.189 63.2824 88.9078 61.5039C90.6266 59.7255 93.0119 58.5272 95.6467 58.1185L95.6467 54.0437C91.7799 54.4513 88.2161 56.0638 85.6197 58.5805C83.0234 61.0972 81.5716 64.3464 81.5352 67.7223L81.5352 74.2231H96.3425L96.3425 70.186Z" fill="#a91e2d"/>
<path id="Vector_22" d="M96.3425 97.1489H86.2438L86.2438 94.8106C86.2461 92.4907 87.189 90.2452 88.9078 88.4668C90.6266 86.6884 93.0119 85.49 95.6467 85.0813L95.6467 81.0066C91.7799 81.4142 88.2161 83.0267 85.6197 85.5434C83.0234 88.0601 81.5716 91.3093 81.5352 94.6852L81.5352 101.186H96.3425L96.3425 97.1489Z" fill="#a91e2d"/>
<path id="Vector_23" d="M96.3425 124.112H86.2438L86.2438 121.773C86.2461 119.454 87.189 117.208 88.9078 115.43C90.6266 113.651 93.0119 112.453 95.6467 112.044L95.6467 107.969C91.7799 108.377 88.2161 109.99 85.6197 112.506C83.0234 115.023 81.5716 118.272 81.5352 121.648L81.5352 128.149H96.3425L96.3425 124.112Z" fill="#a91e2d"/>
<path id="Vector_24" d="M96.3425 151.073H86.2438L86.2438 148.734C86.2461 146.415 87.189 144.169 88.9078 142.391C90.6266 140.612 93.0119 139.414 95.6467 139.005L95.6467 134.93C91.7799 135.338 88.2161 136.95 85.6197 139.467C83.0234 141.984 81.5716 145.233 81.5352 148.609L81.5352 155.11H96.3425L96.3425 151.073Z" fill="#a91e2d"/>
<path id="Vector_25" d="M123.353 16.2641H113.255L113.255 13.9258C113.257 11.6059 114.2 9.36048 115.919 7.58204C117.637 5.80359 120.023 4.60528 122.657 4.19658L122.657 0.121826C118.791 0.529421 115.227 2.1419 112.63 4.65862C110.034 7.17535 108.582 10.4246 108.546 13.8005L108.546 20.3013H123.353L123.353 16.2641Z" fill="#a91e2d"/>
<path id="Vector_26" d="M123.353 43.225H113.255L113.255 40.8868C113.257 38.5669 114.2 36.3214 115.919 34.543C117.637 32.7645 120.023 31.5662 122.657 31.1575L122.657 27.0828C118.791 27.4904 115.227 29.1028 112.63 31.6196C110.034 34.1363 108.582 37.3855 108.546 40.7614L108.546 47.2622H123.353L123.353 43.225Z" fill="#a91e2d"/>
<path id="Vector_27" d="M123.353 70.186H113.255L113.255 67.8477C113.257 65.5278 114.2 63.2824 115.919 61.5039C117.637 59.7255 120.023 58.5272 122.657 58.1185L122.657 54.0437C118.791 54.4513 115.227 56.0638 112.63 58.5805C110.034 61.0972 108.582 64.3464 108.546 67.7223L108.546 74.2231H123.353L123.353 70.186Z" fill="#a91e2d"/>
<path id="Vector_28" d="M123.353 97.1489H113.255L113.255 94.8106C113.257 92.4907 114.2 90.2452 115.919 88.4668C117.637 86.6884 120.023 85.49 122.657 85.0813L122.657 81.0066C118.791 81.4142 115.227 83.0267 112.63 85.5434C110.034 88.0601 108.582 91.3093 108.546 94.6852L108.546 101.186H123.353L123.353 97.1489Z" fill="#a91e2d"/>
<path id="Vector_29" d="M123.353 124.112H113.255L113.255 121.773C113.257 119.454 114.2 117.208 115.919 115.43C117.637 113.651 120.023 112.453 122.657 112.044L122.657 107.969C118.791 108.377 115.227 109.99 112.63 112.506C110.034 115.023 108.582 118.272 108.546 121.648L108.546 128.149H123.353L123.353 124.112Z" fill="#a91e2d"/>
<path id="Vector_30" d="M123.353 151.073H113.255L113.255 148.734C113.257 146.415 114.2 144.169 115.919 142.391C117.637 140.612 120.023 139.414 122.657 139.005L122.657 134.93C118.791 135.338 115.227 136.95 112.63 139.467C110.034 141.984 108.582 145.233 108.546 148.609L108.546 155.11H123.353L123.353 151.073Z" fill="#a91e2d"/>
<path id="Vector_31" d="M150.364 16.2641H140.265L140.265 13.9258C140.268 11.6059 141.21 9.36048 142.929 7.58204C144.648 5.80359 147.033 4.60528 149.668 4.19658L149.668 0.121826C145.801 0.529421 142.238 2.1419 139.641 4.65862C137.045 7.17535 135.593 10.4246 135.557 13.8005L135.557 20.3013H150.364L150.364 16.2641Z" fill="#a91e2d"/>
<path id="Vector_32" d="M177.374 16.2641H167.275L167.275 13.9258C167.277 11.6059 168.22 9.36048 169.939 7.58204C171.658 5.80359 174.043 4.60528 176.678 4.19658L176.678 0.121826C172.811 0.529421 169.247 2.1419 166.651 4.65862C164.055 7.17535 162.603 10.4246 162.566 13.8005L162.566 20.3013H177.374L177.374 16.2641Z" fill="#a91e2d"/>
<path id="Vector_33" d="M150.364 43.225H140.265L140.265 40.8868C140.268 38.5669 141.21 36.3214 142.929 34.543C144.648 32.7645 147.033 31.5662 149.668 31.1575L149.668 27.0828C145.801 27.4904 142.238 29.1028 139.641 31.6196C137.045 34.1363 135.593 37.3855 135.557 40.7614L135.557 47.2622H150.364L150.364 43.225Z" fill="#a91e2d"/>
<path id="Vector_34" d="M177.374 43.225H167.275L167.275 40.8868C167.277 38.5669 168.22 36.3214 169.939 34.543C171.658 32.7645 174.043 31.5662 176.678 31.1575L176.678 27.0828C172.811 27.4904 169.247 29.1028 166.651 31.6196C164.055 34.1363 162.603 37.3855 162.566 40.7614L162.566 47.2622H177.374L177.374 43.225Z" fill="#a91e2d"/>
<path id="Vector_35" d="M150.364 70.186H140.265L140.265 67.8477C140.268 65.5278 141.21 63.2824 142.929 61.5039C144.648 59.7255 147.033 58.5272 149.668 58.1185L149.668 54.0437C145.801 54.4513 142.238 56.0638 139.641 58.5805C137.045 61.0972 135.593 64.3464 135.557 67.7223L135.557 74.2231H150.364L150.364 70.186Z" fill="#a91e2d"/>
<path id="Vector_36" d="M177.374 70.186H167.275L167.275 67.8477C167.277 65.5278 168.22 63.2824 169.939 61.5039C171.658 59.7255 174.043 58.5272 176.678 58.1185L176.678 54.0437C172.811 54.4513 169.247 56.0638 166.651 58.5805C164.055 61.0972 162.603 64.3464 162.566 67.7223L162.566 74.2231H177.374L177.374 70.186Z" fill="#a91e2d"/>
<path id="Vector_37" d="M150.364 97.1489H140.265L140.265 94.8106C140.268 92.4907 141.21 90.2452 142.929 88.4668C144.648 86.6884 147.033 85.49 149.668 85.0813L149.668 81.0066C145.801 81.4142 142.238 83.0267 139.641 85.5434C137.045 88.0601 135.593 91.3093 135.557 94.6852L135.557 101.186H150.364L150.364 97.1489Z" fill="#a91e2d"/>
<path id="Vector_38" d="M177.374 97.1489H167.275L167.275 94.8106C167.277 92.4907 168.22 90.2452 169.939 88.4668C171.658 86.6884 174.043 85.49 176.678 85.0813L176.678 81.0066C172.811 81.4142 169.247 83.0267 166.651 85.5434C164.055 88.0601 162.603 91.3093 162.566 94.6852L162.566 101.186H177.374L177.374 97.1489Z" fill="#a91e2d"/>
<path id="Vector_39" d="M150.364 124.112H140.265L140.265 121.773C140.268 119.454 141.21 117.208 142.929 115.43C144.648 113.651 147.033 112.453 149.668 112.044L149.668 107.969C145.801 108.377 142.238 109.99 139.641 112.506C137.045 115.023 135.593 118.272 135.557 121.648L135.557 128.149H150.364L150.364 124.112Z" fill="#a91e2d"/>
<path id="Vector_40" d="M150.364 151.073H140.265L140.265 148.734C140.268 146.415 141.21 144.169 142.929 142.391C144.648 140.612 147.033 139.414 149.668 139.005L149.668 134.93C145.801 135.338 142.238 136.95 139.641 139.467C137.045 141.984 135.593 145.233 135.557 148.609L135.557 155.11H150.364L150.364 151.073Z" fill="#a91e2d"/>
<path id="Vector_41" d="M177.374 124.112H167.275L167.275 121.773C167.277 119.454 168.22 117.208 169.939 115.43C171.658 113.651 174.043 112.453 176.678 112.044L176.678 107.969C172.811 108.377 169.247 109.99 166.651 112.506C164.055 115.023 162.603 118.272 162.566 121.648L162.566 128.149H177.374L177.374 124.112Z" fill="#a91e2d"/>
<path id="Vector_42" d="M177.374 151.073H167.275L167.275 148.734C167.277 146.415 168.22 144.169 169.939 142.391C171.658 140.612 174.043 139.414 176.678 139.005L176.678 134.93C172.811 135.338 169.247 136.95 166.651 139.467C164.055 141.984 162.603 145.233 162.566 148.609L162.566 155.11H177.374L177.374 151.073Z" fill="#a91e2d"/>
</g>
</svg>