<?xml version="1.0" encoding="UTF-8"?>
<svg id="Layer_1" data-name="Layer 1" xmlns="http://www.w3.org/2000/svg" viewBox="0 0 549.333 255.111">
  <defs>
    <style>
      .cls-1 {
        fill: #a2192b;
      }

      .cls-2 {
        fill: #2e2d2b;
      }
    </style>
  </defs>
  <g>
    <path d="M18.568,246.941c-1.188,0-2.292-.226-3.312-.675-1.019-.45-1.885-1.065-2.598-1.847s-1.24-1.682-1.58-2.7l2.548-1.07c.458,1.172,1.13,2.072,2.013,2.7.883.629,1.901.942,3.057.942.679,0,1.273-.105,1.783-.318.509-.212.904-.513,1.184-.904.281-.391.42-.84.42-1.35,0-.696-.195-1.248-.585-1.656-.392-.407-.968-.729-1.732-.968l-3.565-1.12c-1.427-.441-2.514-1.117-3.261-2.025s-1.121-1.975-1.121-3.197c0-1.069.263-2.008.79-2.814.525-.806,1.252-1.438,2.178-1.897.926-.458,1.982-.688,3.171-.688,1.138,0,2.174.199,3.108.599.934.399,1.735.946,2.406,1.643s1.159,1.503,1.465,2.42l-2.496,1.096c-.374-1.002-.955-1.774-1.745-2.318-.79-.543-1.702-.815-2.738-.815-.628,0-1.181.106-1.655.318-.476.213-.846.519-1.108.917-.263.399-.395.862-.395,1.389,0,.611.194,1.155.586,1.63.39.476.984.833,1.782,1.07l3.312,1.044c1.511.459,2.648,1.117,3.412,1.975.765.857,1.146,1.923,1.146,3.196,0,1.054-.275,1.987-.828,2.802-.551.815-1.311,1.457-2.279,1.924-.968.467-2.088.7-3.362.7Z"/>
    <path d="M49.976,246.941c-1.342,0-2.586-.246-3.732-.738-1.146-.493-2.139-1.176-2.979-2.051s-1.499-1.906-1.974-3.095c-.477-1.188-.714-2.496-.714-3.923,0-1.409.233-2.713.7-3.91s1.125-2.232,1.975-3.107c.849-.875,1.842-1.554,2.98-2.038,1.137-.483,2.385-.726,3.744-.726,1.342,0,2.543.229,3.604.688,1.062.459,1.957,1.058,2.688,1.796s1.257,1.541,1.58,2.407l-2.7,1.273c-.407-1.019-1.058-1.847-1.948-2.483-.893-.637-1.967-.955-3.223-.955s-2.369.297-3.337.892-1.72,1.418-2.255,2.471c-.534,1.053-.802,2.284-.802,3.693s.268,2.645.802,3.706c.535,1.062,1.287,1.885,2.255,2.471s2.08.879,3.337.879,2.33-.314,3.223-.942c.891-.628,1.541-1.452,1.948-2.471l2.7,1.273c-.323.85-.85,1.647-1.58,2.395s-1.625,1.35-2.688,1.809c-1.061.458-2.262.688-3.604.688Z"/>
    <path d="M71.983,246.636l6.674-18.977h3.719l6.674,18.977h-3.21l-1.451-4.254h-7.718l-1.479,4.254h-3.209ZM77.536,239.707h5.936l-3.362-9.934h.84l-3.413,9.934Z"/>
    <path d="M104.026,246.636v-18.977h3.006v16.302h8.202v2.675h-11.208Z"/>
    <path d="M130.491,246.636v-18.977h12.507v2.675h-9.501v5.45h8.992v2.675h-8.992v5.502h9.501v2.675h-12.507Z"/>
    <path d="M179.271,246.636l-5.222-18.977h3.184l4.229,16.43h-.789l4.381-16.43h3.133l4.382,16.43h-.815l4.254-16.43h3.158l-5.196,18.977h-3.388l-4.406-16.175h.892l-4.433,16.175h-3.362Z"/>
    <path d="M214.142,246.636v-18.977h3.006v18.977h-3.006Z"/>
    <path d="M237.168,246.636v-16.302h-5.043v-2.675h12.991v2.675h-4.968v16.302h-2.98Z"/>
    <path d="M260.093,246.636v-18.977h3.006v8.354h8.788v-8.354h2.98v18.977h-2.98v-7.947h-8.788v7.947h-3.006Z"/>
    <path d="M300.747,246.941c-1.376,0-2.654-.246-3.834-.738-1.181-.493-2.216-1.181-3.107-2.063s-1.588-1.919-2.089-3.107-.751-2.488-.751-3.897.25-2.713.751-3.91,1.192-2.232,2.076-3.107c.883-.875,1.919-1.554,3.107-2.038,1.188-.483,2.471-.726,3.847-.726,1.392,0,2.679.242,3.858.726,1.181.484,2.217,1.168,3.107,2.051.892.883,1.584,1.919,2.076,3.107s.739,2.488.739,3.897-.251,2.709-.752,3.897-1.193,2.225-2.076,3.107-1.919,1.57-3.107,2.063c-1.188.492-2.471.738-3.846.738ZM300.747,244.19c.984,0,1.889-.179,2.713-.535.823-.356,1.541-.854,2.152-1.49s1.086-1.384,1.426-2.241.51-1.787.51-2.789-.17-1.928-.51-2.776c-.34-.85-.814-1.597-1.426-2.242-.611-.645-1.329-1.146-2.152-1.503-.824-.356-1.729-.534-2.713-.534s-1.89.178-2.713.534c-.824.357-1.541.858-2.152,1.503-.611.646-1.083,1.393-1.414,2.242-.331.849-.497,1.774-.497,2.776s.166,1.932.497,2.789.803,1.604,1.414,2.241,1.333,1.134,2.165,1.49,1.731.535,2.7.535Z"/>
    <path d="M333.733,246.941c-1.41,0-2.662-.297-3.758-.892-1.095-.594-1.952-1.409-2.572-2.445-.62-1.035-.93-2.216-.93-3.541v-12.404h3.006v12.277c0,.832.182,1.571.548,2.216.364.646.865,1.146,1.503,1.503.637.356,1.371.535,2.203.535.849,0,1.592-.179,2.229-.535s1.138-.857,1.503-1.503c.365-.645.548-1.384.548-2.216v-12.277h2.98v12.404c0,1.325-.306,2.506-.917,3.541-.611,1.036-1.465,1.852-2.561,2.445-1.095.595-2.356.892-3.782.892Z"/>
    <path d="M360.86,246.636v-16.302h-5.043v-2.675h12.991v2.675h-4.968v16.302h-2.98Z"/>
    <path d="M400.979,246.636v-18.977h3.006v16.302h8.202v2.675h-11.208Z"/>
    <path d="M427.444,246.636v-18.977h3.006v18.977h-3.006Z"/>
    <path d="M447.108,246.636v-18.977h2.803l7.132,9.883h-1.401l7.005-9.883h2.803v18.977h-2.98v-15.437l1.12.306-7.157,9.781h-.306l-7.005-9.781.993-.306v15.437h-3.006Z"/>
    <path d="M482.106,246.636v-18.977h3.006v18.977h-3.006Z"/>
    <path d="M505.133,246.636v-16.302h-5.043v-2.675h12.991v2.675h-4.968v16.302h-2.98Z"/>
    <path d="M534.706,246.941c-1.188,0-2.292-.226-3.312-.675-1.019-.45-1.885-1.065-2.598-1.847s-1.24-1.682-1.579-2.7l2.547-1.07c.459,1.172,1.129,2.072,2.013,2.7.883.629,1.901.942,3.057.942.679,0,1.273-.105,1.782-.318.51-.212.904-.513,1.185-.904.28-.391.421-.84.421-1.35,0-.696-.195-1.248-.586-1.656-.391-.407-.968-.729-1.732-.968l-3.566-1.12c-1.426-.441-2.513-1.117-3.26-2.025-.748-.908-1.121-1.975-1.121-3.197,0-1.069.263-2.008.79-2.814.525-.806,1.252-1.438,2.178-1.897.925-.458,1.982-.688,3.171-.688,1.138,0,2.174.199,3.107.599.935.399,1.736.946,2.407,1.643s1.159,1.503,1.465,2.42l-2.496,1.096c-.374-1.002-.955-1.774-1.745-2.318-.789-.543-1.702-.815-2.738-.815-.628,0-1.181.106-1.655.318-.476.213-.845.519-1.108.917-.264.399-.395.862-.395,1.389,0,.611.195,1.155.586,1.63.391.476.984.833,1.783,1.07l3.311,1.044c1.512.459,2.649,1.117,3.414,1.975.764.857,1.146,1.923,1.146,3.196,0,1.054-.275,1.987-.827,2.802-.553.815-1.312,1.457-2.28,1.924s-2.089.7-3.362.7Z"/>
  </g>
  <g>
    <path d="M126.781,124.01V20.962h34.432v103.049c0,42.056-36.153,73.044-74.766,72.798-39.105-.246-69.355-24.84-76.487-62.715h34.677c3.689,18.199,21.151,30.742,41.81,30.742,22.872,0,40.334-18.2,40.334-40.826Z"/>
    <path d="M542.578,145.162c0,28.529-27.789,51.647-73.78,51.647-46.241,0-82.148-22.627-84.603-56.567h35.907c3.686,16.478,23.118,27.054,48.201,27.054,23.368,0,39.843-9.838,39.843-23.118,0-41.072-121.741.738-121.741-77.963,0-30.25,31.971-48.942,74.275-48.942,44.76,0,76.241,21.397,78.947,52.631h-35.662c-2.951-13.28-21.152-24.102-43.285-24.102-24.103,0-39.843,9.1-39.843,21.397,0,38.121,121.741-1.722,121.741,77.963Z"/>
    <g>
      <polygon class="cls-2" points="240.77 161.228 199.307 142.73 199.307 146.304 240.77 164.802 348.387 137.055 348.387 133.481 240.77 161.228"/>
      <polygon class="cls-2" points="240.77 105.578 199.307 87.08 199.307 90.654 240.77 109.152 348.387 81.405 348.387 77.831 240.77 105.578"/>
      <path class="cls-1" d="M199.307,70.15v-35.147l41.463,18.498,107.618-27.747v36.071l-107.618,27.747-41.463-19.423Z"/>
      <path class="cls-2" d="M304.61,6.035l-105.303,28.969,41.214,18.753,107.867-28.002-43.778-19.72ZM207.402,35.484l97.189-26.883,37.039,16.465-100.582,25.548-33.646-15.13Z"/>
      <path class="cls-1" d="M199.307,125.801v-35.147l41.463,18.498,107.618-27.747v36.071l-107.618,27.747-41.463-19.423Z"/>
      <path class="cls-1" d="M199.307,181.451v-35.147l41.463,18.498,107.618-27.747v36.071l-107.618,27.747-41.463-19.423Z"/>
    </g>
  </g>
</svg>