<svg width="299" height="105" viewBox="0 0 299 105" fill="none" xmlns="http://www.w3.org/2000/svg">
<path d="M44.0181 56.9144V41.172H59.9647V56.9144H44.0181ZM44.0181 25.4297V33.2414H67.9179V64.7657H35.9845V25.4297H28.0312V72.6171H75.831V25.4297H44.0181Z" fill="#0083DB"/>
<path d="M102.739 47.9119V47.5154C102.739 47.5154 105.632 47.1188 105.632 43.7483V39.783C105.632 35.6194 103.623 33.6367 99.4055 33.6367H88.3594V64.4473H99.8072C104.025 64.4473 106.033 62.4646 106.033 58.301V52.5513C106.154 48.3877 102.739 47.9119 102.739 47.9119ZM93.3 37.9986H97.9997C100.008 37.9986 100.691 38.6727 100.691 40.6553V43.3121C100.691 45.2948 100.008 45.9689 97.9997 45.9689H93.3V37.9986ZM101.213 57.4287C101.213 59.4113 100.53 60.0854 98.5218 60.0854H93.3V50.3704H98.5218C100.53 50.3704 101.213 51.0445 101.213 53.0272C101.213 53.0668 101.213 57.4287 101.213 57.4287Z" fill="black"/>
<path d="M115.275 60.0854H127.004V64.4473H110.375V33.6367H115.275V60.0854Z" fill="black"/>
<path d="M147.881 58.6976C147.881 62.8612 145.873 64.8438 141.655 64.8438H135.429C131.212 64.8438 129.203 62.8612 129.203 58.6976V33.6367H134.104V57.9045C134.104 59.8872 134.786 60.5613 136.795 60.5613H140.41C142.418 60.5613 143.101 59.8872 143.101 57.9045V33.6367H148.002V58.6976H147.881Z" fill="black"/>
<path d="M157.05 46.6033H166.369V50.9652H157.05V60.0854H169.502V64.4473H152.109V33.6367H169.1V37.9986H157.05V46.6033Z" fill="black"/>
<path d="M200.105 46.6033H209.544V50.9652H200.105V60.0854H212.637V64.4473H195.164V33.6367H212.155V37.9986H200.105V46.6033Z" fill="black"/>
<path d="M228.109 33.6367H222.405L214.773 64.4473H219.995L221.602 57.2304H229.234L230.841 64.4473H236.062L228.109 33.6367ZM222.365 52.7496L225.056 40.8536H225.458L228.149 52.7496H222.365Z" fill="black"/>
<path d="M248.59 64.4473L243.368 45.5327H242.846V64.4473H237.945V33.6367H244.372L250.197 54.9305H250.679L256.623 33.6367H262.93V64.4473H258.029V45.5327H257.628L252.406 64.4473H248.59Z" fill="black"/>
<path d="M187.533 47.9119V47.5154C187.533 47.5154 190.425 47.1188 190.425 43.7483V39.783C190.425 35.6194 188.417 33.6367 184.199 33.6367H173.273V64.4473H184.721C188.939 64.4473 190.947 62.4646 190.947 58.301V52.5513C190.947 48.3877 187.533 47.9119 187.533 47.9119ZM178.214 37.9986H182.914C184.922 37.9986 185.605 38.6727 185.605 40.6553V43.3121C185.605 45.2948 184.922 45.9689 182.914 45.9689H178.214V37.9986ZM186.127 57.4287C186.127 59.4113 185.444 60.0854 183.436 60.0854H178.214V50.3704H183.436C185.444 50.3704 186.127 51.0445 186.127 53.0272V57.4287Z" fill="black"/>
<path d="M150.82 76.8191L153.11 70.8711H153.994L156.484 76.8191H155.48L154.797 75.0347H152.307L151.624 76.8191H150.82ZM152.507 74.3606H154.516L153.913 72.6951C153.712 72.2193 153.632 71.8228 153.512 71.5055C153.431 71.9021 153.311 72.2986 153.23 72.5762L152.507 74.3606Z" fill="black"/>
<path d="M159.133 76.8191V70.8711H159.936L163.15 75.5105V70.8711H163.953V76.8191H163.15L159.936 72.1796V76.8191H159.133Z" fill="black"/>
<path d="M165.478 76.8191V70.8711H169.776V71.5452H166.161V73.3296H169.454V74.0037H166.161V75.9864H169.856V76.6605H165.438V76.8191H165.478Z" fill="black"/>
<path d="M171.188 76.8158V70.8678H172.393L173.798 75.1107C173.879 75.5072 173.999 75.7848 174.08 75.983C174.16 75.7848 174.28 75.5072 174.361 74.9917L175.767 70.8281H176.851V76.7761H176.048V71.8195L174.361 76.7761H173.678L171.991 71.7401V76.7761H171.188V76.8158Z" fill="black"/>
<path d="M178.298 76.8191V70.8711H182.596V71.5452H178.981V73.3296H182.275V74.0037H178.981V75.9864H182.676V76.6605H178.258V76.8191H178.298Z" fill="black"/>
<path d="M185.649 76.8185V71.5843H183.641V70.9102H188.461V71.5843H186.452V76.8185H185.649Z" fill="black"/>
<path d="M189.055 74.9566L189.858 74.8773C189.858 75.1548 189.938 75.3531 190.059 75.5514C190.139 75.7496 190.34 75.8289 190.661 76.0272C190.943 76.2255 191.264 76.2255 191.545 76.2255C191.826 76.2255 192.148 76.2255 192.348 76.1462C192.549 76.0669 192.75 75.9479 192.83 75.7496C192.911 75.5514 193.031 75.4721 193.031 75.2738C193.031 75.0755 192.951 74.8773 192.83 74.798C192.75 74.7186 192.549 74.5204 192.348 74.4014C192.148 74.3221 191.866 74.2031 191.264 74.1238C190.661 74.0445 190.38 73.8463 190.059 73.7273C189.778 73.529 189.577 73.4497 189.456 73.1325C189.376 72.9342 189.256 72.6567 189.256 72.4584C189.256 72.1808 189.336 71.8636 189.537 71.586C189.738 71.3085 189.938 71.1102 190.34 70.9912C190.742 70.8723 191.023 70.793 191.425 70.793C191.826 70.793 192.228 70.8723 192.63 70.9912C192.911 71.0705 193.232 71.3878 193.433 71.586C193.634 71.8636 193.714 72.1808 193.714 72.4584L192.911 72.5377C192.911 72.1412 192.71 71.8636 192.509 71.6653C192.308 71.4671 191.907 71.3878 191.505 71.3878C191.023 71.3878 190.702 71.4671 190.42 71.6653C190.139 71.8636 190.139 72.0619 190.139 72.2601C190.139 72.4584 190.22 72.6567 190.34 72.736C190.541 72.8153 190.943 73.0135 191.545 73.1325C192.148 73.2118 192.63 73.4101 192.83 73.529C193.112 73.7273 193.433 73.9256 193.634 74.1238C193.835 74.3221 193.835 74.5997 193.835 74.9962C193.835 75.2738 193.754 75.591 193.553 75.8686C193.353 76.1462 193.152 76.3444 192.75 76.5427C192.469 76.741 192.067 76.741 191.545 76.741C191.023 76.741 190.541 76.6617 190.139 76.5427C189.738 76.3444 189.456 76.1462 189.256 75.8686C189.135 75.6307 189.055 75.3531 189.055 74.9566Z" fill="black"/>
<path d="M199.388 74.7583L200.192 74.9566C199.991 75.6307 199.71 76.1462 199.308 76.4237C198.906 76.7013 198.304 76.8996 197.701 76.8996C197.099 76.8996 196.496 76.8203 196.095 76.503C195.693 76.2255 195.412 75.9082 195.211 75.4324C195.01 74.9566 194.93 74.4411 194.93 73.8463C194.93 73.2515 195.01 72.6567 195.331 72.2601C195.532 71.7843 195.934 71.4671 196.336 71.1895C196.737 70.9912 197.219 70.793 197.822 70.793C198.424 70.793 198.906 70.9912 199.308 71.2688C199.71 71.5464 199.991 71.9429 200.192 72.5377L199.388 72.736C199.308 72.3394 199.107 71.9429 198.786 71.7446C198.505 71.5464 198.183 71.4671 197.782 71.4671C197.3 71.4671 196.978 71.5464 196.577 71.7446C196.295 71.9429 196.095 72.2205 195.894 72.617C195.813 73.0136 195.693 73.4101 195.693 73.8066C195.693 74.2825 195.773 74.798 195.894 75.0755C195.974 75.4721 196.295 75.7496 196.577 75.9479C196.858 76.1462 197.259 76.2255 197.581 76.2255C197.982 76.2255 198.384 76.1462 198.665 75.8289C199.107 75.6307 199.308 75.2341 199.388 74.7583Z" fill="black"/>
<path d="M201.312 76.8191V70.8711H202.116V73.3296H205.209V70.8711H206.012V76.8191H205.209V74.0434H202.116V76.8191H201.312Z" fill="black"/>
<path d="M207.54 76.8191V70.8711H211.838V71.5452H208.223V73.3296H211.517V74.0037H208.223V75.9864H211.918V76.6605H207.5V76.8191H207.54Z" fill="black"/>
<path d="M213.234 76.8191V70.8711H214.038V73.8451L217.05 70.8711H218.135L215.644 73.2503L218.255 76.8191H217.251L215.162 73.8451L214.158 74.8364V76.8984H213.275V76.8191H213.234Z" fill="black"/>
<path d="M225.771 74.7583L226.574 74.9566C226.374 75.6307 226.092 76.1462 225.691 76.4237C225.289 76.7013 224.687 76.8996 224.084 76.8996C223.482 76.8996 222.879 76.8203 222.477 76.503C222.076 76.2255 221.795 75.9082 221.594 75.4324C221.393 74.9566 221.312 74.4411 221.312 73.8463C221.312 73.2515 221.393 72.6567 221.714 72.2601C221.915 71.7843 222.317 71.4671 222.718 71.1895C223.12 70.9912 223.602 70.793 224.205 70.793C224.807 70.793 225.289 70.9912 225.691 71.2688C226.092 71.5464 226.374 71.9429 226.574 72.5377L225.771 72.736C225.691 72.3394 225.49 71.9429 225.169 71.7446C224.887 71.5464 224.566 71.4671 224.164 71.4671C223.682 71.4671 223.361 71.5464 222.959 71.7446C222.678 71.9429 222.477 72.2205 222.277 72.617C222.196 73.0136 222.076 73.4101 222.076 73.8066C222.076 74.2825 222.156 74.798 222.277 75.0755C222.357 75.4721 222.678 75.7496 222.959 75.9479C223.241 76.1462 223.642 76.2255 223.964 76.2255C224.365 76.2255 224.767 76.1462 225.048 75.8289C225.49 75.6307 225.691 75.2341 225.771 74.7583Z" fill="black"/>
<path d="M227.5 73.9635C227.5 72.9721 227.781 72.1791 228.303 71.7032C228.785 71.1084 229.508 70.9102 230.392 70.9102C230.995 70.9102 231.477 70.9895 231.878 71.3067C232.28 71.6239 232.682 71.9015 232.883 72.3773C233.083 72.8532 233.284 73.3687 233.284 73.9635C233.284 74.5582 233.204 75.153 232.883 75.5496C232.682 76.0254 232.28 76.3427 231.878 76.6202C231.477 76.8978 230.995 77.0168 230.392 77.0168C229.79 77.0168 229.308 76.9374 228.906 76.6202C228.504 76.3427 228.103 76.0254 227.902 75.5496C227.58 74.9548 227.5 74.4789 227.5 73.9635ZM228.303 73.9635C228.303 74.6376 228.504 75.2324 228.906 75.6289C229.308 76.0254 229.79 76.2237 230.392 76.2237C230.995 76.2237 231.477 76.0254 231.878 75.6289C232.28 75.2324 232.481 74.6376 232.481 73.8445C232.481 73.3687 232.4 72.9721 232.28 72.5756C232.079 72.1791 231.878 71.9808 231.597 71.7825C231.316 71.5843 230.914 71.505 230.513 71.505C229.91 71.505 229.508 71.7032 229.026 72.0998C228.504 72.3773 228.303 73.0911 228.303 73.9635Z" fill="black"/>
<path d="M234.328 76.8158V70.8678H235.533L236.939 75.1107C237.019 75.5072 237.14 75.7848 237.22 75.983C237.301 75.7848 237.421 75.5072 237.501 74.9917L238.907 70.8281H239.992V76.7761H239.188V71.8195L237.501 76.7761H236.819L235.131 71.7401V76.7761H234.328V76.8158Z" fill="black"/>
<path d="M241.562 76.8191V70.8711H243.852C244.254 70.8711 244.535 70.8711 244.736 70.9504C245.017 70.9504 245.218 71.0297 245.419 71.228C245.619 71.3073 245.82 71.5055 245.901 71.8228C245.981 72.021 246.101 72.2986 246.101 72.6158C246.101 73.0917 245.901 73.4882 245.619 73.8847C245.338 74.2813 244.736 74.3606 243.812 74.3606H242.326V76.7398C242.366 76.8191 241.562 76.8191 241.562 76.8191ZM242.366 73.6865H243.973C244.455 73.6865 244.856 73.6072 245.057 73.4089C245.258 73.2106 245.338 72.9331 245.338 72.6158C245.338 72.2986 245.258 72.14 245.137 72.021C245.057 71.8228 244.856 71.7435 244.655 71.6245C244.575 71.6245 244.254 71.5452 243.973 71.5452H242.486V73.7261H242.366V73.6865Z" fill="black"/>
<path d="M245.977 76.8191L248.266 70.8711H249.15L251.64 76.8191H250.757L250.074 75.0347H247.583L246.9 76.8191H245.977ZM247.784 74.3606H249.793L249.19 72.6951C248.989 72.2193 248.909 71.8228 248.788 71.5055C248.708 71.9021 248.587 72.2986 248.507 72.5762L247.784 74.3606Z" fill="black"/>
<path d="M252.398 76.8191V70.8711H253.202L256.415 75.5105V70.8711H257.219V76.8191H256.415L253.202 72.1796V76.8191H252.398Z" fill="black"/>
<path d="M260.313 76.8158V74.3573L258.023 70.9074H259.028L260.233 72.6918C260.434 72.9694 260.634 73.3659 260.835 73.6832C261.036 73.4056 261.237 73.0091 261.518 72.6125L262.723 70.8281H263.607L261.197 74.278V76.7365H260.313V76.8158Z" fill="black"/>
<path d="M265.461 35.4205C265.461 35.143 265.541 34.8257 265.662 34.5482C265.742 34.2706 266.063 34.0723 266.345 33.874C266.626 33.6758 266.947 33.6758 267.228 33.6758C267.51 33.6758 267.831 33.7551 268.112 33.874C268.393 34.0723 268.594 34.2706 268.795 34.5482C268.996 34.8257 268.996 35.143 268.996 35.4205C268.996 35.6981 268.915 36.0153 268.795 36.2929C268.594 36.5705 268.393 36.7687 268.112 36.967C267.831 37.1653 267.51 37.2446 267.228 37.2446C266.947 37.2446 266.626 37.1653 266.345 36.967C266.063 36.7687 265.863 36.5705 265.662 36.2929C265.541 36.0153 265.461 35.6981 265.461 35.4205ZM265.742 35.4205C265.742 35.6981 265.822 35.8964 265.943 36.2136C266.023 36.4119 266.224 36.6101 266.545 36.8084C266.827 37.0067 267.027 37.0067 267.349 37.0067C267.67 37.0067 267.831 36.9274 268.152 36.8084C268.353 36.7291 268.554 36.5308 268.755 36.2136C268.835 36.0153 268.956 35.7378 268.956 35.4205C268.956 35.1033 268.875 34.9447 268.755 34.6275C268.674 34.4292 268.474 34.2309 268.152 34.0327C267.831 33.8344 267.67 33.8344 267.349 33.8344C267.027 33.8344 266.867 33.9137 266.545 34.0327C266.264 34.112 266.144 34.3102 265.943 34.6275C265.863 34.8257 265.742 35.1033 265.742 35.4205ZM268.072 35.024C268.072 35.3016 267.992 35.4998 267.67 35.6188L268.273 36.6101H267.791L267.309 35.8171H267.108V36.6101H266.626V34.3499H267.228C267.51 34.3499 267.71 34.4292 267.831 34.5482C267.871 34.6275 268.072 34.7068 268.072 35.024ZM267.068 35.3016H267.268C267.349 35.3016 267.469 35.3016 267.55 35.2223C267.63 35.143 267.63 35.143 267.63 35.024C267.63 34.9447 267.63 34.8257 267.55 34.8257C267.469 34.8257 267.349 34.7464 267.268 34.7464H267.068V35.3016Z" fill="black"/>
</svg>